<mxfile host="app.diagrams.net" modified="2023-07-15T04:28:43.882Z" agent="Mozilla/5.0 (Macintosh; Intel Mac OS X 10_15_7) AppleWebKit/537.36 (KHTML, like Gecko) Chrome/114.0.0.0 Safari/537.36" etag="c2GhGGRT_nrvkDbFm0bY" version="21.6.2" type="github">
  <diagram name="第 1 页" id="a8bgi-aEy4bfx3oBJa2q">
    <mxGraphModel dx="1306" dy="736" grid="1" gridSize="10" guides="1" tooltips="1" connect="1" arrows="1" fold="1" page="1" pageScale="1" pageWidth="827" pageHeight="1169" math="0" shadow="0">
      <root>
        <mxCell id="0" />
        <mxCell id="1" parent="0" />
        <mxCell id="Djf3IF8Wzhi6LQnPZfXk-45" value="" style="rounded=1;whiteSpace=wrap;html=1;" parent="1" vertex="1">
          <mxGeometry x="146" y="500" width="292" height="109" as="geometry" />
        </mxCell>
        <mxCell id="Djf3IF8Wzhi6LQnPZfXk-47" value="" style="rounded=1;whiteSpace=wrap;html=1;" parent="1" vertex="1">
          <mxGeometry x="450" y="500" width="298" height="110" as="geometry" />
        </mxCell>
        <mxCell id="Djf3IF8Wzhi6LQnPZfXk-54" value="" style="rounded=1;whiteSpace=wrap;html=1;fillColor=#fad9d5;strokeColor=#ae4132;" parent="1" vertex="1">
          <mxGeometry x="450" y="203" width="298" height="269" as="geometry" />
        </mxCell>
        <mxCell id="Djf3IF8Wzhi6LQnPZfXk-50" value="" style="rounded=1;whiteSpace=wrap;html=1;fillColor=#fad9d5;strokeColor=#ae4132;" parent="1" vertex="1">
          <mxGeometry x="146" y="203" width="292" height="269" as="geometry" />
        </mxCell>
        <mxCell id="Djf3IF8Wzhi6LQnPZfXk-40" value="atta" style="rounded=1;whiteSpace=wrap;html=1;" parent="1" vertex="1">
          <mxGeometry x="145" y="700" width="603" height="60" as="geometry" />
        </mxCell>
        <mxCell id="Djf3IF8Wzhi6LQnPZfXk-41" value="tdbank-tube" style="rounded=1;whiteSpace=wrap;html=1;" parent="1" vertex="1">
          <mxGeometry x="146" y="630" width="292" height="60" as="geometry" />
        </mxCell>
        <mxCell id="Djf3IF8Wzhi6LQnPZfXk-42" value="tdw" style="rounded=1;whiteSpace=wrap;html=1;" parent="1" vertex="1">
          <mxGeometry x="450" y="630" width="298" height="60" as="geometry" />
        </mxCell>
        <mxCell id="Djf3IF8Wzhi6LQnPZfXk-43" value="原始上报" style="text;html=1;align=center;verticalAlign=middle;resizable=0;points=[];autosize=1;strokeColor=none;fillColor=none;labelBackgroundColor=none;" parent="1" vertex="1">
          <mxGeometry x="45" y="685" width="70" height="30" as="geometry" />
        </mxCell>
        <mxCell id="Djf3IF8Wzhi6LQnPZfXk-44" value="dwd" style="text;html=1;align=center;verticalAlign=middle;resizable=0;points=[];autosize=1;strokeColor=none;fillColor=none;labelBackgroundColor=none;" parent="1" vertex="1">
          <mxGeometry x="55" y="529.5" width="50" height="30" as="geometry" />
        </mxCell>
        <mxCell id="Djf3IF8Wzhi6LQnPZfXk-60" value="" style="edgeStyle=orthogonalEdgeStyle;rounded=0;orthogonalLoop=1;jettySize=auto;html=1;" parent="1" source="Djf3IF8Wzhi6LQnPZfXk-46" target="Djf3IF8Wzhi6LQnPZfXk-53" edge="1">
          <mxGeometry relative="1" as="geometry" />
        </mxCell>
        <mxCell id="Djf3IF8Wzhi6LQnPZfXk-61" style="edgeStyle=orthogonalEdgeStyle;rounded=0;orthogonalLoop=1;jettySize=auto;html=1;exitX=0.5;exitY=0;exitDx=0;exitDy=0;entryX=0.5;entryY=1;entryDx=0;entryDy=0;" parent="1" source="Djf3IF8Wzhi6LQnPZfXk-46" target="Djf3IF8Wzhi6LQnPZfXk-52" edge="1">
          <mxGeometry relative="1" as="geometry" />
        </mxCell>
        <mxCell id="Djf3IF8Wzhi6LQnPZfXk-108" style="edgeStyle=orthogonalEdgeStyle;rounded=0;orthogonalLoop=1;jettySize=auto;html=1;exitX=1;exitY=0.5;exitDx=0;exitDy=0;entryX=0;entryY=0.5;entryDx=0;entryDy=0;" parent="1" source="Djf3IF8Wzhi6LQnPZfXk-46" target="Djf3IF8Wzhi6LQnPZfXk-107" edge="1">
          <mxGeometry relative="1" as="geometry" />
        </mxCell>
        <mxCell id="Djf3IF8Wzhi6LQnPZfXk-110" value="数据透传" style="edgeLabel;html=1;align=center;verticalAlign=middle;resizable=0;points=[];" parent="Djf3IF8Wzhi6LQnPZfXk-108" vertex="1" connectable="0">
          <mxGeometry x="0.0085" y="-2" relative="1" as="geometry">
            <mxPoint x="3" y="-2" as="offset" />
          </mxGeometry>
        </mxCell>
        <mxCell id="Djf3IF8Wzhi6LQnPZfXk-46" value="3端real" style="rounded=1;whiteSpace=wrap;html=1;" parent="1" vertex="1">
          <mxGeometry x="223" y="519.5" width="138" height="60" as="geometry" />
        </mxCell>
        <mxCell id="Djf3IF8Wzhi6LQnPZfXk-51" value="应用" style="text;html=1;align=center;verticalAlign=middle;resizable=0;points=[];autosize=1;strokeColor=none;fillColor=none;labelBackgroundColor=none;" parent="1" vertex="1">
          <mxGeometry x="55" y="120" width="50" height="30" as="geometry" />
        </mxCell>
        <mxCell id="Djf3IF8Wzhi6LQnPZfXk-52" value="3端vid real汇总" style="rounded=1;whiteSpace=wrap;html=1;fillColor=#ffe6cc;strokeColor=#d79b00;" parent="1" vertex="1">
          <mxGeometry x="160" y="310" width="118" height="60" as="geometry" />
        </mxCell>
        <mxCell id="Djf3IF8Wzhi6LQnPZfXk-53" value="3端cid real汇总" style="rounded=1;whiteSpace=wrap;html=1;fillColor=#ffe6cc;strokeColor=#d79b00;" parent="1" vertex="1">
          <mxGeometry x="296" y="310" width="118" height="60" as="geometry" />
        </mxCell>
        <mxCell id="Djf3IF8Wzhi6LQnPZfXk-59" value="" style="edgeStyle=orthogonalEdgeStyle;rounded=0;orthogonalLoop=1;jettySize=auto;html=1;" parent="1" source="Djf3IF8Wzhi6LQnPZfXk-55" target="Djf3IF8Wzhi6LQnPZfXk-56" edge="1">
          <mxGeometry relative="1" as="geometry" />
        </mxCell>
        <mxCell id="Djf3IF8Wzhi6LQnPZfXk-55" value="全端vid（不带tag）" style="rounded=1;whiteSpace=wrap;html=1;fillColor=#ffe6cc;strokeColor=#d79b00;" parent="1" vertex="1">
          <mxGeometry x="529" y="400" width="118" height="60" as="geometry" />
        </mxCell>
        <mxCell id="Djf3IF8Wzhi6LQnPZfXk-58" value="" style="edgeStyle=orthogonalEdgeStyle;rounded=0;orthogonalLoop=1;jettySize=auto;html=1;" parent="1" source="Djf3IF8Wzhi6LQnPZfXk-56" target="Djf3IF8Wzhi6LQnPZfXk-57" edge="1">
          <mxGeometry relative="1" as="geometry" />
        </mxCell>
        <mxCell id="Djf3IF8Wzhi6LQnPZfXk-56" value="全端vid（带tag）" style="rounded=1;whiteSpace=wrap;html=1;fillColor=#ffe6cc;strokeColor=#d79b00;" parent="1" vertex="1">
          <mxGeometry x="529" y="310" width="118" height="60" as="geometry" />
        </mxCell>
        <mxCell id="Djf3IF8Wzhi6LQnPZfXk-57" value="全端cid" style="rounded=1;whiteSpace=wrap;html=1;fillColor=#ffe6cc;strokeColor=#d79b00;" parent="1" vertex="1">
          <mxGeometry x="529" y="220" width="118" height="60" as="geometry" />
        </mxCell>
        <mxCell id="Djf3IF8Wzhi6LQnPZfXk-65" style="edgeStyle=orthogonalEdgeStyle;rounded=0;orthogonalLoop=1;jettySize=auto;html=1;exitX=0;exitY=0.5;exitDx=0;exitDy=0;entryX=1;entryY=0.5;entryDx=0;entryDy=0;" parent="1" source="Djf3IF8Wzhi6LQnPZfXk-63" target="Djf3IF8Wzhi6LQnPZfXk-56" edge="1">
          <mxGeometry relative="1" as="geometry" />
        </mxCell>
        <mxCell id="Djf3IF8Wzhi6LQnPZfXk-66" value="关联" style="edgeLabel;html=1;align=center;verticalAlign=middle;resizable=0;points=[];" parent="Djf3IF8Wzhi6LQnPZfXk-65" vertex="1" connectable="0">
          <mxGeometry x="0.0037" y="3" relative="1" as="geometry">
            <mxPoint x="-3" y="-2" as="offset" />
          </mxGeometry>
        </mxCell>
        <mxCell id="Djf3IF8Wzhi6LQnPZfXk-63" value="离线小时媒资" style="rounded=1;whiteSpace=wrap;html=1;" parent="1" vertex="1">
          <mxGeometry x="768" y="309.5" width="118" height="60" as="geometry" />
        </mxCell>
        <mxCell id="Djf3IF8Wzhi6LQnPZfXk-67" value="dws" style="text;html=1;align=center;verticalAlign=middle;resizable=0;points=[];autosize=1;strokeColor=none;fillColor=none;labelBackgroundColor=none;" parent="1" vertex="1">
          <mxGeometry x="60" y="340" width="40" height="30" as="geometry" />
        </mxCell>
        <mxCell id="Djf3IF8Wzhi6LQnPZfXk-68" value="OVAL/OBA等" style="rounded=1;whiteSpace=wrap;html=1;" parent="1" vertex="1">
          <mxGeometry x="146" y="90" width="292" height="90" as="geometry" />
        </mxCell>
        <mxCell id="Djf3IF8Wzhi6LQnPZfXk-70" value="日报/大盘指标等" style="rounded=1;whiteSpace=wrap;html=1;" parent="1" vertex="1">
          <mxGeometry x="453" y="90" width="285" height="90" as="geometry" />
        </mxCell>
        <mxCell id="Djf3IF8Wzhi6LQnPZfXk-71" value="改造方案" style="html=1;shadow=0;dashed=0;align=center;verticalAlign=middle;shape=mxgraph.arrows2.arrow;dy=0.6;dx=40;notch=0;fillColor=#dae8fc;strokeColor=#6c8ebf;" parent="1" vertex="1">
          <mxGeometry x="902" y="360" width="98" height="120" as="geometry" />
        </mxCell>
        <mxCell id="Djf3IF8Wzhi6LQnPZfXk-112" style="edgeStyle=orthogonalEdgeStyle;rounded=0;orthogonalLoop=1;jettySize=auto;html=1;exitX=0.5;exitY=0;exitDx=0;exitDy=0;entryX=0.5;entryY=1;entryDx=0;entryDy=0;" parent="1" source="Djf3IF8Wzhi6LQnPZfXk-100" target="Djf3IF8Wzhi6LQnPZfXk-55" edge="1">
          <mxGeometry relative="1" as="geometry" />
        </mxCell>
        <mxCell id="Djf3IF8Wzhi6LQnPZfXk-100" value="小端离线&lt;br&gt;（pdd/新闻/小程序/h5等）" style="rounded=1;whiteSpace=wrap;html=1;" parent="1" vertex="1">
          <mxGeometry x="560" y="519.5" width="178" height="60" as="geometry" />
        </mxCell>
        <mxCell id="Djf3IF8Wzhi6LQnPZfXk-111" style="edgeStyle=orthogonalEdgeStyle;rounded=0;orthogonalLoop=1;jettySize=auto;html=1;exitX=0.5;exitY=0;exitDx=0;exitDy=0;" parent="1" source="Djf3IF8Wzhi6LQnPZfXk-107" target="Djf3IF8Wzhi6LQnPZfXk-55" edge="1">
          <mxGeometry relative="1" as="geometry" />
        </mxCell>
        <mxCell id="Djf3IF8Wzhi6LQnPZfXk-107" value="3端离线" style="rounded=1;whiteSpace=wrap;html=1;gradientColor=none;dashed=1;" parent="1" vertex="1">
          <mxGeometry x="482" y="519.5" width="60" height="60" as="geometry" />
        </mxCell>
        <mxCell id="Djf3IF8Wzhi6LQnPZfXk-113" value="" style="rounded=1;whiteSpace=wrap;html=1;" parent="1" vertex="1">
          <mxGeometry x="1033" y="500" width="292" height="109" as="geometry" />
        </mxCell>
        <mxCell id="Djf3IF8Wzhi6LQnPZfXk-114" value="" style="rounded=1;whiteSpace=wrap;html=1;" parent="1" vertex="1">
          <mxGeometry x="1342" y="500" width="293" height="110" as="geometry" />
        </mxCell>
        <mxCell id="Djf3IF8Wzhi6LQnPZfXk-116" value="" style="rounded=1;whiteSpace=wrap;html=1;fillColor=#fad9d5;strokeColor=#ae4132;" parent="1" vertex="1">
          <mxGeometry x="1033" y="200" width="597" height="272" as="geometry" />
        </mxCell>
        <mxCell id="Djf3IF8Wzhi6LQnPZfXk-117" value="atta" style="rounded=1;whiteSpace=wrap;html=1;" parent="1" vertex="1">
          <mxGeometry x="1032" y="700" width="603" height="60" as="geometry" />
        </mxCell>
        <mxCell id="Djf3IF8Wzhi6LQnPZfXk-118" value="tdbank-tube" style="rounded=1;whiteSpace=wrap;html=1;" parent="1" vertex="1">
          <mxGeometry x="1033" y="630" width="292" height="60" as="geometry" />
        </mxCell>
        <mxCell id="Djf3IF8Wzhi6LQnPZfXk-119" value="tdw" style="rounded=1;whiteSpace=wrap;html=1;" parent="1" vertex="1">
          <mxGeometry x="1337" y="630" width="298" height="60" as="geometry" />
        </mxCell>
        <mxCell id="Djf3IF8Wzhi6LQnPZfXk-123" style="edgeStyle=orthogonalEdgeStyle;rounded=0;orthogonalLoop=1;jettySize=auto;html=1;exitX=0.5;exitY=0;exitDx=0;exitDy=0;entryX=0.5;entryY=1;entryDx=0;entryDy=0;" parent="1" source="Djf3IF8Wzhi6LQnPZfXk-126" target="Djf3IF8Wzhi6LQnPZfXk-128" edge="1">
          <mxGeometry relative="1" as="geometry" />
        </mxCell>
        <mxCell id="Djf3IF8Wzhi6LQnPZfXk-124" style="edgeStyle=orthogonalEdgeStyle;rounded=0;orthogonalLoop=1;jettySize=auto;html=1;exitX=1;exitY=0.5;exitDx=0;exitDy=0;entryX=0;entryY=0.5;entryDx=0;entryDy=0;" parent="1" source="Djf3IF8Wzhi6LQnPZfXk-126" target="Djf3IF8Wzhi6LQnPZfXk-144" edge="1">
          <mxGeometry relative="1" as="geometry" />
        </mxCell>
        <mxCell id="Djf3IF8Wzhi6LQnPZfXk-125" value="数据透传" style="edgeLabel;html=1;align=center;verticalAlign=middle;resizable=0;points=[];" parent="Djf3IF8Wzhi6LQnPZfXk-124" vertex="1" connectable="0">
          <mxGeometry x="0.0085" y="-2" relative="1" as="geometry">
            <mxPoint x="3" y="-2" as="offset" />
          </mxGeometry>
        </mxCell>
        <mxCell id="Djf3IF8Wzhi6LQnPZfXk-126" value="3端real" style="rounded=1;whiteSpace=wrap;html=1;" parent="1" vertex="1">
          <mxGeometry x="1080" y="518.5" width="138" height="60" as="geometry" />
        </mxCell>
        <mxCell id="Djf3IF8Wzhi6LQnPZfXk-167" style="edgeStyle=orthogonalEdgeStyle;rounded=0;orthogonalLoop=1;jettySize=auto;html=1;exitX=0.5;exitY=0;exitDx=0;exitDy=0;entryX=0.5;entryY=1;entryDx=0;entryDy=0;" parent="1" source="Djf3IF8Wzhi6LQnPZfXk-128" target="Djf3IF8Wzhi6LQnPZfXk-131" edge="1">
          <mxGeometry relative="1" as="geometry">
            <Array as="points">
              <mxPoint x="1147" y="360" />
              <mxPoint x="1182" y="360" />
            </Array>
          </mxGeometry>
        </mxCell>
        <mxCell id="Djf3IF8Wzhi6LQnPZfXk-168" style="edgeStyle=orthogonalEdgeStyle;rounded=0;orthogonalLoop=1;jettySize=auto;html=1;exitX=0.5;exitY=0;exitDx=0;exitDy=0;entryX=0.5;entryY=1;entryDx=0;entryDy=0;" parent="1" source="Djf3IF8Wzhi6LQnPZfXk-128" target="Djf3IF8Wzhi6LQnPZfXk-159" edge="1">
          <mxGeometry relative="1" as="geometry">
            <Array as="points">
              <mxPoint x="1147" y="360" />
              <mxPoint x="1331" y="360" />
            </Array>
          </mxGeometry>
        </mxCell>
        <mxCell id="Djf3IF8Wzhi6LQnPZfXk-169" style="edgeStyle=orthogonalEdgeStyle;rounded=0;orthogonalLoop=1;jettySize=auto;html=1;exitX=0.5;exitY=0;exitDx=0;exitDy=0;entryX=0.5;entryY=1;entryDx=0;entryDy=0;" parent="1" source="Djf3IF8Wzhi6LQnPZfXk-128" target="Djf3IF8Wzhi6LQnPZfXk-134" edge="1">
          <mxGeometry relative="1" as="geometry">
            <Array as="points">
              <mxPoint x="1147" y="360" />
              <mxPoint x="1481" y="360" />
            </Array>
          </mxGeometry>
        </mxCell>
        <mxCell id="Djf3IF8Wzhi6LQnPZfXk-128" value="3端vid real汇总" style="rounded=1;whiteSpace=wrap;html=1;fillColor=#ffe6cc;strokeColor=#d79b00;" parent="1" vertex="1">
          <mxGeometry x="1089" y="402" width="120" height="52" as="geometry" />
        </mxCell>
        <mxCell id="Djf3IF8Wzhi6LQnPZfXk-131" value="全端vid（不带tag）" style="rounded=1;whiteSpace=wrap;html=1;fillColor=#ffe6cc;strokeColor=#d79b00;" parent="1" vertex="1">
          <mxGeometry x="1123" y="240" width="118" height="57" as="geometry" />
        </mxCell>
        <mxCell id="Djf3IF8Wzhi6LQnPZfXk-134" value="全端cid" style="rounded=1;whiteSpace=wrap;html=1;fillColor=#ffe6cc;strokeColor=#d79b00;" parent="1" vertex="1">
          <mxGeometry x="1422" y="240.5" width="118" height="56.5" as="geometry" />
        </mxCell>
        <mxCell id="Djf3IF8Wzhi6LQnPZfXk-135" style="edgeStyle=orthogonalEdgeStyle;rounded=0;orthogonalLoop=1;jettySize=auto;html=1;exitX=0;exitY=0.5;exitDx=0;exitDy=0;entryX=1;entryY=0.5;entryDx=0;entryDy=0;" parent="1" source="Djf3IF8Wzhi6LQnPZfXk-137" target="Djf3IF8Wzhi6LQnPZfXk-145" edge="1">
          <mxGeometry relative="1" as="geometry" />
        </mxCell>
        <mxCell id="Djf3IF8Wzhi6LQnPZfXk-155" value="" style="edgeStyle=orthogonalEdgeStyle;rounded=0;orthogonalLoop=1;jettySize=auto;html=1;" parent="1" source="Djf3IF8Wzhi6LQnPZfXk-137" target="Djf3IF8Wzhi6LQnPZfXk-145" edge="1">
          <mxGeometry relative="1" as="geometry" />
        </mxCell>
        <mxCell id="Djf3IF8Wzhi6LQnPZfXk-157" value="关联" style="edgeLabel;html=1;align=center;verticalAlign=middle;resizable=0;points=[];" parent="Djf3IF8Wzhi6LQnPZfXk-155" vertex="1" connectable="0">
          <mxGeometry x="-0.025" y="3" relative="1" as="geometry">
            <mxPoint as="offset" />
          </mxGeometry>
        </mxCell>
        <mxCell id="Djf3IF8Wzhi6LQnPZfXk-137" value="离线小时媒资" style="rounded=1;whiteSpace=wrap;html=1;" parent="1" vertex="1">
          <mxGeometry x="1652" y="397" width="118" height="60" as="geometry" />
        </mxCell>
        <mxCell id="Djf3IF8Wzhi6LQnPZfXk-139" value="OVAL/OBA等" style="rounded=1;whiteSpace=wrap;html=1;" parent="1" vertex="1">
          <mxGeometry x="1033" y="90" width="292" height="90" as="geometry" />
        </mxCell>
        <mxCell id="Djf3IF8Wzhi6LQnPZfXk-140" value="日报/大盘指标等" style="rounded=1;whiteSpace=wrap;html=1;" parent="1" vertex="1">
          <mxGeometry x="1340" y="90" width="285" height="90" as="geometry" />
        </mxCell>
        <mxCell id="Djf3IF8Wzhi6LQnPZfXk-146" style="edgeStyle=orthogonalEdgeStyle;rounded=0;orthogonalLoop=1;jettySize=auto;html=1;exitX=0.5;exitY=0;exitDx=0;exitDy=0;entryX=0.5;entryY=1;entryDx=0;entryDy=0;" parent="1" source="Djf3IF8Wzhi6LQnPZfXk-142" target="Djf3IF8Wzhi6LQnPZfXk-145" edge="1">
          <mxGeometry relative="1" as="geometry" />
        </mxCell>
        <mxCell id="Djf3IF8Wzhi6LQnPZfXk-142" value="小端离线&lt;br&gt;（pdd/新闻/小程序/h5等）" style="rounded=1;whiteSpace=wrap;html=1;" parent="1" vertex="1">
          <mxGeometry x="1440" y="519.5" width="162" height="60" as="geometry" />
        </mxCell>
        <mxCell id="Djf3IF8Wzhi6LQnPZfXk-144" value="3端离线" style="rounded=1;whiteSpace=wrap;html=1;gradientColor=none;dashed=1;" parent="1" vertex="1">
          <mxGeometry x="1377" y="519.5" width="55" height="60" as="geometry" />
        </mxCell>
        <mxCell id="Djf3IF8Wzhi6LQnPZfXk-166" style="edgeStyle=orthogonalEdgeStyle;rounded=0;orthogonalLoop=1;jettySize=auto;html=1;exitX=0.5;exitY=0;exitDx=0;exitDy=0;entryX=0.5;entryY=1;entryDx=0;entryDy=0;" parent="1" source="Djf3IF8Wzhi6LQnPZfXk-145" edge="1">
          <mxGeometry relative="1" as="geometry">
            <mxPoint x="1521" y="372" as="sourcePoint" />
            <mxPoint x="1331" y="269" as="targetPoint" />
            <Array as="points">
              <mxPoint x="1521" y="360" />
              <mxPoint x="1331" y="360" />
            </Array>
          </mxGeometry>
        </mxCell>
        <mxCell id="Djf3IF8Wzhi6LQnPZfXk-170" style="edgeStyle=orthogonalEdgeStyle;rounded=0;orthogonalLoop=1;jettySize=auto;html=1;exitX=0.5;exitY=0;exitDx=0;exitDy=0;entryX=0.5;entryY=1;entryDx=0;entryDy=0;" parent="1" source="Djf3IF8Wzhi6LQnPZfXk-145" target="Djf3IF8Wzhi6LQnPZfXk-134" edge="1">
          <mxGeometry relative="1" as="geometry">
            <Array as="points">
              <mxPoint x="1521" y="360" />
              <mxPoint x="1481" y="360" />
            </Array>
          </mxGeometry>
        </mxCell>
        <mxCell id="GsuGRvOgCzTj5hkyKlxC-1" value="all_cid_list打散" style="edgeLabel;html=1;align=center;verticalAlign=middle;resizable=0;points=[];" parent="Djf3IF8Wzhi6LQnPZfXk-170" vertex="1" connectable="0">
          <mxGeometry x="0.5664" relative="1" as="geometry">
            <mxPoint as="offset" />
          </mxGeometry>
        </mxCell>
        <mxCell id="Djf3IF8Wzhi6LQnPZfXk-171" style="edgeStyle=orthogonalEdgeStyle;rounded=0;orthogonalLoop=1;jettySize=auto;html=1;exitX=0.5;exitY=0;exitDx=0;exitDy=0;entryX=0.5;entryY=1;entryDx=0;entryDy=0;" parent="1" source="Djf3IF8Wzhi6LQnPZfXk-145" target="Djf3IF8Wzhi6LQnPZfXk-131" edge="1">
          <mxGeometry relative="1" as="geometry">
            <Array as="points">
              <mxPoint x="1521" y="360" />
              <mxPoint x="1182" y="360" />
            </Array>
          </mxGeometry>
        </mxCell>
        <mxCell id="Djf3IF8Wzhi6LQnPZfXk-145" value="小端离线汇总" style="rounded=1;whiteSpace=wrap;html=1;fillColor=#ffe6cc;strokeColor=#d79b00;" parent="1" vertex="1">
          <mxGeometry x="1462" y="400" width="118" height="52" as="geometry" />
        </mxCell>
        <mxCell id="Djf3IF8Wzhi6LQnPZfXk-159" value="全端vid（带tag）" style="rounded=1;whiteSpace=wrap;html=1;fillColor=#ffe6cc;strokeColor=#d79b00;" parent="1" vertex="1">
          <mxGeometry x="1272" y="240" width="118" height="57" as="geometry" />
        </mxCell>
      </root>
    </mxGraphModel>
  </diagram>
</mxfile>
